<?xml version="1.0" encoding="UTF-8"?>
<!DOCTYPE svg PUBLIC "-//W3C//DTD SVG 1.1//EN" "http://www.w3.org/Graphics/SVG/1.1/DTD/svg11.dtd">
<!-- Creator: CorelDRAW 2019 (64-Bit) -->
<svg xmlns="http://www.w3.org/2000/svg" xml:space="preserve" width="8.26772in" height="8.26773in" version="1.1" style="shape-rendering:geometricPrecision; text-rendering:geometricPrecision; image-rendering:optimizeQuality; fill-rule:evenodd; clip-rule:evenodd"
viewBox="0 0 8267.72 8267.73"
 xmlns:xlink="http://www.w3.org/1999/xlink"
 xmlns:xodm="http://www.corel.com/coreldraw/odm/2003">
 <defs>
  <style type="text/css">
   <![CDATA[
    .fil0 {fill:black}
   ]]>
  </style>
 </defs>
 <g id="Layer_x0020_1">
  <metadata id="CorelCorpID_0Corel-Layer"/>
  <g id="_1523185476064">
   <path class="fil0" d="M652.44 6616.79l0 -3414.2 6957.22 0 0 3414.2c0,159.13 -31.56,309.09 -80.5,418.74 -50.2,112.45 -122.11,218.82 -210.96,304.4 -182.4,175.65 -400.89,275.35 -755.34,275.35l-4863.61 0c-349.27,0 -562.06,-94.8 -746.97,-267.63l-62.75 -66.08c-23.98,-26.57 -37.43,-43.43 -58.02,-70.83 -117.61,-156.64 -179.07,-374.45 -179.07,-593.94zm5359.2 -6602.93l45.54 0c71.1,4.68 141.06,31.5 196.55,83.67 139.52,131.17 99.78,296.47 99.78,544.41 348.4,0 623.22,-10.31 934.06,128.83 536.06,239.97 966.29,791.9 966.29,1385l0 4573.75c0,304.59 -129.46,644.5 -294.24,865.3 -283.8,380.3 -734.34,664.65 -1219.59,664.65l-5217.94 0c-210.91,0 -468.23,-84.23 -617.62,-155.41 -53.78,-25.62 -80.23,-41.44 -123.22,-70.02 -40.82,-27.15 -75.1,-44.45 -117.65,-75.61l-200.85 -169.57c-120.88,-123.56 -233.09,-291.77 -309.84,-447.08 -69.92,-141.48 -144.66,-399.89 -144.66,-612.26l0 -4557.64c0,-446.51 205.33,-791.5 495.2,-1083.06 403.77,-406.12 816.65,-446.89 1405.15,-446.89l0 -354.31c0,-68.17 61.06,-153.69 99.78,-190.1 48.43,-45.54 117.67,-83.67 206.21,-83.67 397.78,0 338.2,367.47 338.2,628.09l3156.52 0 0 -322.09c0,-182.91 147.13,-295.84 302.33,-306zm-5359.2 2270.77c0,-391.97 204.5,-727.63 507.38,-877.63 277.06,-137.24 427.6,-104.77 748.78,-104.77l0 644.2c0,163.98 162.8,305.98 322.11,305.98 154.72,0 322.09,-150.54 322.09,-305.98l0 -644.2 3156.52 0 0 644.2c0,155.44 167.37,305.98 322.09,305.98 159.3,0 322.11,-142 322.11,-305.98l0 -644.2c397.41,0 689.68,-35.55 1010.78,309.8 250.96,269.93 245.37,558.16 245.37,930.26l-6957.22 0 0 -257.67z"/>
   <path class="fil0" d="M1586.5 6343.01c0,196.53 138.11,338.2 306,338.2l676.4 0c395.07,0 404.87,-644.2 0,-644.2l-708.62 0c-118.71,0 -273.78,147.38 -273.78,306z"/>
   <path class="fil0" d="M3486.85 6343.01c0,198.91 140.4,338.2 306,338.2l676.4 0c393.46,0 404.47,-644.2 0,-644.2l-708.6 0c-118.73,0 -273.8,147.38 -273.8,306z"/>
   <path class="fil0" d="M3486.85 4442.66c0,198.91 140.4,338.2 306,338.2l676.4 0c398.95,0 398.95,-644.2 0,-644.2l-676.4 0c-162.69,0 -306,145.95 -306,306z"/>
   <path class="fil0" d="M1586.5 4458.76c0,171.89 137.75,322.11 306,322.11l676.4 0c400.04,0 400.04,-644.2 0,-644.2l-676.4 0c-168.24,0 -306,150.21 -306,322.09z"/>
   <path class="fil0" d="M5387.22 4458.76c0,165.41 137.67,322.11 305.98,322.11l676.4 0c401.26,0 401.26,-644.2 0,-644.2l-676.4 0c-168.57,0 -305.98,153.16 -305.98,322.09z"/>
   <path class="fil0" d="M5387.22 6359.12c0,162.18 139.39,322.09 305.98,322.09l676.4 0c240.94,0 420.6,-309.08 221.41,-543.5 -34.3,-40.34 -122.17,-100.7 -189.19,-100.7l-708.62 0c-168.57,0 -305.98,153.16 -305.98,322.11z"/>
  </g>
 </g>
</svg>
